ISO-10303-21;
HEADER;
FILE_DESCRIPTION(('ViewDefinition[DesignTransferView]'),'2;1');
FILE_NAME('/dev/null','2026-05-05T13:54:33+10:00',(''),(''),'IfcOpenShell 0.8.5','IfcOpenShell 0.8.5','Nobody');
FILE_SCHEMA(('IFC4'));
ENDSEC;
DATA;
#1=IFCPROJECT('370znmjUP1vPKeIX4NnE1P',$,'Sunlight House Sample',$,$,$,$,(#13),#8);
#2=IFCSITE('3LLZzde6DDveOSr3FdoRdx',$,'Sample Site',$,$,$,$,$,$,$,$,$,$,$);
#3=IFCBUILDING('1HRecNenD4YhJyCNsgQx_A',$,'Sample Building',$,$,$,$,$,$,$,$,$);
#4=IFCBUILDINGSTOREY('3_IzZI5PT8chakI7CWVP_M',$,'Ground Floor',$,$,$,$,$,$,$);
#5=IFCSIUNIT(*,.LENGTHUNIT.,$,.METRE.);
#6=IFCSIUNIT(*,.AREAUNIT.,$,.SQUARE_METRE.);
#7=IFCSIUNIT(*,.VOLUMEUNIT.,$,.CUBIC_METRE.);
#8=IFCUNITASSIGNMENT((#5,#6,#7));
#9=IFCCARTESIANPOINT((0.,0.,0.));
#10=IFCDIRECTION((0.,0.,1.));
#11=IFCDIRECTION((1.,0.,0.));
#12=IFCAXIS2PLACEMENT3D(#9,#10,#11);
#13=IFCGEOMETRICREPRESENTATIONCONTEXT($,'Model',3,1.0000000000000001E-05,#12,$);
#14=IFCGEOMETRICREPRESENTATIONSUBCONTEXT('Body','Model',*,*,*,*,#13,$,.MODEL_VIEW.,$);
#15=IFCRELAGGREGATES('0_rwU3Rt17uApRNkYG9d7_',$,$,$,#1,(#2));
#16=IFCRELAGGREGATES('2cuih2dYrDcx73Dnym12Ek',$,$,$,#2,(#3));
#17=IFCRELAGGREGATES('3amaVhPHLC5uyDVpAb33mT',$,$,$,#3,(#4));
#18=IFCSPACE('0dtWx9IhLCSQ$PCzo7vIfu',$,'Sample Living Room',$,$,#39,#28,$,$,$,$);
#19=IFCCARTESIANPOINTLIST3D(((0.,0.,0.),(4.,0.,0.),(4.,5.,0.),(0.,5.,0.),(0.,0.,3.),(4.,0.,3.),(4.,5.,3.),(0.,5.,3.)));
#20=IFCINDEXEDPOLYGONALFACE((1,2,3,4));
#21=IFCINDEXEDPOLYGONALFACE((5,8,7,6));
#22=IFCINDEXEDPOLYGONALFACE((1,5,6,2));
#23=IFCINDEXEDPOLYGONALFACE((2,6,7,3));
#24=IFCINDEXEDPOLYGONALFACE((3,7,8,4));
#25=IFCINDEXEDPOLYGONALFACE((4,8,5,1));
#26=IFCPOLYGONALFACESET(#19,$,(#20,#21,#22,#23,#24,#25),$);
#27=IFCSHAPEREPRESENTATION(#14,'Body','Tessellation',(#26));
#28=IFCPRODUCTDEFINITIONSHAPE($,$,(#27));
#34=IFCRELAGGREGATES('1mnm$5RED0yR1Pxf7rHr5c',$,$,$,#4,(#18));
#35=IFCCARTESIANPOINT((0.,0.,0.));
#36=IFCDIRECTION((0.,0.,1.));
#37=IFCDIRECTION((1.,0.,0.));
#38=IFCAXIS2PLACEMENT3D(#35,#36,#37);
#39=IFCLOCALPLACEMENT($,#38);
#40=IFCWINDOW('3oa2IXe4f1kRE3CMy3V_6o',$,'North Window',$,$,#61,#50,$,$,$,$,$,$);
#41=IFCCARTESIANPOINTLIST3D(((2.25,4.9800000000000004,0.10000000000000001),(3.75,4.9800000000000004,0.10000000000000001),(3.75,5.0199999999999996,0.10000000000000001),(2.25,5.0199999999999996,0.10000000000000001),(2.25,4.9800000000000004,2.1000000000000001),(3.75,4.9800000000000004,2.1000000000000001),(3.75,5.0199999999999996,2.1000000000000001),(2.25,5.0199999999999996,2.1000000000000001)));
#42=IFCINDEXEDPOLYGONALFACE((1,2,3,4));
#43=IFCINDEXEDPOLYGONALFACE((5,8,7,6));
#44=IFCINDEXEDPOLYGONALFACE((1,5,6,2));
#45=IFCINDEXEDPOLYGONALFACE((2,6,7,3));
#46=IFCINDEXEDPOLYGONALFACE((3,7,8,4));
#47=IFCINDEXEDPOLYGONALFACE((4,8,5,1));
#48=IFCPOLYGONALFACESET(#41,$,(#42,#43,#44,#45,#46,#47),$);
#49=IFCSHAPEREPRESENTATION(#14,'Body','Tessellation',(#48));
#50=IFCPRODUCTDEFINITIONSHAPE($,$,(#49));
#56=IFCRELCONTAINEDINSPATIALSTRUCTURE('1$xJe7jBf32OriN1un$BIv',$,$,$,(#40,#62),#4);
#57=IFCCARTESIANPOINT((0.,0.,0.));
#58=IFCDIRECTION((0.,0.,1.));
#59=IFCDIRECTION((1.,0.,0.));
#60=IFCAXIS2PLACEMENT3D(#57,#58,#59);
#61=IFCLOCALPLACEMENT($,#60);
#62=IFCWINDOW('1bIAee$br6$RJPQUBHzIKq',$,'East Window',$,$,#82,#72,$,$,$,$,$,$);
#63=IFCCARTESIANPOINTLIST3D(((3.98,2.0499999999999998,0.10000000000000001),(4.0199999999999996,2.0499999999999998,0.10000000000000001),(4.0199999999999996,3.5499999999999998,0.10000000000000001),(3.98,3.5499999999999998,0.10000000000000001),(3.98,2.0499999999999998,2.1000000000000001),(4.0199999999999996,2.0499999999999998,2.1000000000000001),(4.0199999999999996,3.5499999999999998,2.1000000000000001),(3.98,3.5499999999999998,2.1000000000000001)));
#64=IFCINDEXEDPOLYGONALFACE((1,2,3,4));
#65=IFCINDEXEDPOLYGONALFACE((5,8,7,6));
#66=IFCINDEXEDPOLYGONALFACE((1,5,6,2));
#67=IFCINDEXEDPOLYGONALFACE((2,6,7,3));
#68=IFCINDEXEDPOLYGONALFACE((3,7,8,4));
#69=IFCINDEXEDPOLYGONALFACE((4,8,5,1));
#70=IFCPOLYGONALFACESET(#63,$,(#64,#65,#66,#67,#68,#69),$);
#71=IFCSHAPEREPRESENTATION(#14,'Body','Tessellation',(#70));
#72=IFCPRODUCTDEFINITIONSHAPE($,$,(#71));
#78=IFCCARTESIANPOINT((0.,0.,0.));
#79=IFCDIRECTION((0.,0.,1.));
#80=IFCDIRECTION((1.,0.,0.));
#81=IFCAXIS2PLACEMENT3D(#78,#79,#80);
#82=IFCLOCALPLACEMENT($,#81);
ENDSEC;
END-ISO-10303-21;
